<svg width="57" height="55" viewBox="0 0 57 55" fill="none" xmlns="http://www.w3.org/2000/svg">
<g filter="url(#filter0_d_52_65)">
<path d="M9.5 40.375V36.125H14.25V21.25C14.25 18.3104 15.2396 15.7073 17.2188 13.4406C19.1979 11.1385 21.7708 9.63333 24.9375 8.925V7.4375C24.9375 6.55208 25.274 5.80833 25.9469 5.20625C26.6594 4.56875 27.5104 4.25 28.5 4.25C29.4896 4.25 30.3208 4.56875 30.9938 5.20625C31.7063 5.80833 32.0625 6.55208 32.0625 7.4375V8.925C35.2292 9.63333 37.8021 11.1385 39.7812 13.4406C41.7604 15.7073 42.75 18.3104 42.75 21.25V36.125H47.5V40.375H9.5ZM28.5 46.75C27.1938 46.75 26.0656 46.3427 25.1156 45.5281C24.2052 44.6781 23.75 43.6688 23.75 42.5H33.25C33.25 43.6688 32.775 44.6781 31.825 45.5281C30.9146 46.3427 29.8062 46.75 28.5 46.75ZM19 36.125H38V21.25C38 18.9125 37.0698 16.9115 35.2094 15.2469C33.349 13.5823 31.1125 12.75 28.5 12.75C25.8875 12.75 23.651 13.5823 21.7906 15.2469C19.9302 16.9115 19 18.9125 19 21.25V36.125Z" fill="#FEF7FF"/>
</g>
<defs>
<filter id="filter0_d_52_65" x="-4" y="0" width="65" height="59" filterUnits="userSpaceOnUse" color-interpolation-filters="sRGB">
<feFlood flood-opacity="0" result="BackgroundImageFix"/>
<feColorMatrix in="SourceAlpha" type="matrix" values="0 0 0 0 0 0 0 0 0 0 0 0 0 0 0 0 0 0 127 0" result="hardAlpha"/>
<feOffset dy="4"/>
<feGaussianBlur stdDeviation="2"/>
<feComposite in2="hardAlpha" operator="out"/>
<feColorMatrix type="matrix" values="0 0 0 0 0 0 0 0 0 0 0 0 0 0 0 0 0 0 0.25 0"/>
<feBlend mode="normal" in2="BackgroundImageFix" result="effect1_dropShadow_52_65"/>
<feBlend mode="normal" in="SourceGraphic" in2="effect1_dropShadow_52_65" result="shape"/>
</filter>
</defs>
</svg>
